<svg id="Layer_1" data-name="Layer 1" xmlns="http://www.w3.org/2000/svg" viewBox="0 0 936.5 128"><defs><style>.cls-1{fill:#d0dbff;}.cls-2{fill:none;}.cls-3{fill:#262535;}.cls-4{fill:#676386;}.cls-5{fill:#d0cee0;}.cls-6{fill:#a19dc2;}</style></defs><title>ortaklab_logo3</title><g id="Layer_3" data-name="Layer 3"><g id="Layer_1-2" data-name="Layer 1-2"><path class="cls-1" d="M278.12,45.34a33.35,33.35,0,0,1,24.16,10.07c6.81,6.69,10.25,15,10.31,25a35.91,35.91,0,0,1-9.77,25.41,31.64,31.64,0,0,1-24,10.48,32.56,32.56,0,0,1-24.34-10.36,34.22,34.22,0,0,1-10-24.64,37.43,37.43,0,0,1,2.84-14.63,34.27,34.27,0,0,1,7.52-11.43A35.08,35.08,0,0,1,265.62,48,31.14,31.14,0,0,1,278.12,45.34ZM261,80.81c0,5.57,1.78,10.13,5.39,13.62a16.67,16.67,0,0,0,24.1.12c3.55-3.38,5.39-7.94,5.39-13.62s-1.78-10.31-5.39-13.74A17.14,17.14,0,0,0,278.42,62a16.73,16.73,0,0,0-12,5.21c-3.61,3.44-5.39,8-5.39,13.56Z"/><path class="cls-1" d="M335.33,79.51V71.1a8.21,8.21,0,0,1,8.23-8.23h3.61A9,9,0,0,1,352.8,65a7.41,7.41,0,0,1,2.72,6.28,7.29,7.29,0,0,1-2.72,6.22,8.76,8.76,0,0,1-5.45,2.07h-.59c-4.56,0-7,3.67-7,8.23V88c0,4.56,2.43,8.23,7,8.23h.41l2.9-.18c4.26,10.13,6.69,15.81,7.34,17.06a7.28,7.28,0,0,0,1.72,1.84,4.65,4.65,0,0,0,3,.89,14.1,14.1,0,0,0,4.86-1.3c3.91-1.66,5.86-3.61,5.86-6a15.24,15.24,0,0,0-1.42-4.92c-1.78-4-3.2-7.28-4.44-10.07a8.54,8.54,0,0,1,1-8.23,24,24,0,0,0,4.09-14,24.29,24.29,0,0,0-2.49-11.13,21.28,21.28,0,0,0-6.22-7.88c-5.21-4-10.54-6-16-6H327c-4,0-6.46.83-7.34,2.55a6.28,6.28,0,0,0-.89,2.49,20,20,0,0,0-.12,3.26v52.18a15.34,15.34,0,0,0,.59,4.92c.77,2.31,3.32,3.49,7.7,3.49,4,0,6.46-.83,7.34-2.55a7.36,7.36,0,0,0,.89-2.49,20,20,0,0,0,.12-3.26V96.15"/><path class="cls-1" d="M380.64,46.11h52.3a10.44,10.44,0,0,1,4.44.71,3.66,3.66,0,0,1,1.9,2.19,12.79,12.79,0,0,1,.47,4,12.63,12.63,0,0,1-.47,3.91,3.23,3.23,0,0,1-1.6,2,10.29,10.29,0,0,1-4.8.83H414.93V107a28.86,28.86,0,0,1-.12,3.2,6.65,6.65,0,0,1-.83,2.37,4.12,4.12,0,0,1-2.49,2,15.86,15.86,0,0,1-4.68.59,15.62,15.62,0,0,1-4.68-.59,3.85,3.85,0,0,1-2.43-2,7.39,7.39,0,0,1-.83-2.43,20,20,0,0,1-.12-3.26V59.79H380.7a10.44,10.44,0,0,1-4.44-.71,3.66,3.66,0,0,1-1.9-2.19,12.79,12.79,0,0,1-.47-4,12.63,12.63,0,0,1,.47-3.91,3.23,3.23,0,0,1,1.6-2A10.17,10.17,0,0,1,380.64,46.11Z"/><line class="cls-2" x1="455.8" y1="96.39" x2="457.75" y2="92.42"/><path class="cls-1" d="M454.85,86.56l6.22-12.91,6.28,12.91h-2.25a7.14,7.14,0,0,0-6.46,4h0a6.78,6.78,0,0,0,3.14,9.12,6.85,6.85,0,0,0,2.61.71l1.18.06h8.59l4.92,10.19c.65,1.24,1.13,2.19,1.48,2.84a5.46,5.46,0,0,0,1.72,1.78,5,5,0,0,0,3,.83,12.25,12.25,0,0,0,5-1.6c3.61-1.84,5.45-3.85,5.45-6.1a12.27,12.27,0,0,0-1.6-4.8L468.77,51.14c-1.66-3.26-4.15-4.92-7.52-4.92a8.29,8.29,0,0,0-4.44,1.3A7.81,7.81,0,0,0,453.66,51l-25.41,52.59a12.27,12.27,0,0,0-1.6,4.8c0,2.25,1.84,4.26,5.45,6a12.25,12.25,0,0,0,5,1.6,5,5,0,0,0,3-.89,7.87,7.87,0,0,0,1.72-1.72c.36-.59.83-1.48,1.48-2.72l4.92-10.13"/><path class="cls-1" d="M530.42,80.52q14.39,13.86,20.43,20.79c2.07,2.31,3.08,4.26,3.08,5.86s-1.24,3.49-3.79,5.63-4.56,3.26-6.16,3.26-3.49-1.3-5.8-4L517.51,88.45v18.36a31,31,0,0,1-.12,3.32,7.91,7.91,0,0,1-.89,2.43c-.89,1.72-3.32,2.55-7.34,2.55-4.38,0-6.93-1.18-7.7-3.55a14.62,14.62,0,0,1-.59-4.8V54.52a29.94,29.94,0,0,1,.12-3.26,7.36,7.36,0,0,1,.89-2.49c.89-1.72,3.32-2.55,7.34-2.55,4.38,0,7,1.18,7.82,3.49a19.51,19.51,0,0,1,.47,4.92V72.58C526,63,530.77,56.18,536,50c2.19-2.55,4.09-3.85,5.74-3.85s3.73,1.07,6.22,3.26,3.73,4,3.73,5.63-.95,3.49-2.84,5.69c-3.67,4.2-7.11,8.94-14.81,16.29Z"/><path class="cls-1" d="M576,101.25h25.59a10.57,10.57,0,0,1,4.5.71,3.66,3.66,0,0,1,1.9,2.19,17.35,17.35,0,0,1,0,8.05,3.15,3.15,0,0,1-1.6,2.07,10.73,10.73,0,0,1-4.92.95H567.55c-4.38,0-6.93-1.18-7.7-3.55a14.62,14.62,0,0,1-.59-4.8V54.52a30.49,30.49,0,0,1,.12-3.26,7.36,7.36,0,0,1,.89-2.49c.89-1.72,3.32-2.55,7.34-2.55,4.38,0,7,1.18,7.82,3.49a19.51,19.51,0,0,1,.47,4.92Z"/><line class="cls-2" x1="643.07" y1="96.39" x2="644.96" y2="92.42"/><path class="cls-1" d="M642.12,86.56l6.22-12.91,6.28,12.91h-2.19a7.14,7.14,0,0,0-6.46,4h0a6.78,6.78,0,0,0,3.14,9.12,6.85,6.85,0,0,0,2.61.71l1.18.06h8.53l4.92,10.19c.65,1.24,1.13,2.19,1.48,2.84a5.46,5.46,0,0,0,1.72,1.78,5,5,0,0,0,3,.83,12.25,12.25,0,0,0,5-1.6c3.61-1.84,5.45-3.85,5.45-6.1a12.27,12.27,0,0,0-1.6-4.8L656,51.08c-1.66-3.26-4.15-4.92-7.52-4.92a8.29,8.29,0,0,0-4.44,1.3A7.81,7.81,0,0,0,640.87,51l-25.41,52.59a12.27,12.27,0,0,0-1.6,4.8c0,2.25,1.84,4.26,5.45,6a12.25,12.25,0,0,0,5,1.6,5,5,0,0,0,3-.89,7.87,7.87,0,0,0,1.72-1.72c.36-.59.83-1.48,1.48-2.72l4.92-10.19"/><path class="cls-1" d="M737.23,78.21A22.29,22.29,0,0,1,742.8,93a22,22,0,0,1-6.46,15.75A20.48,20.48,0,0,1,721.12,115H696.37c-4.38,0-6.93-1.18-7.7-3.55a17.2,17.2,0,0,1-.59-4.92V54.4a31,31,0,0,1,.12-3.32,6,6,0,0,1,.89-2.43c.89-1.72,3.32-2.55,7.34-2.55h23.69a19.5,19.5,0,0,1,14.51,6,20.53,20.53,0,0,1,2.61,26.06ZM726.1,92a9.11,9.11,0,0,0-.53-3.55,3.38,3.38,0,0,0-1.72-1.9,14.6,14.6,0,0,0-5.27-.77,8.18,8.18,0,0,1-5.09-1.3c-1.13-.89-1.72-2.67-1.72-5.39s.59-4.5,1.72-5.39,3.08-1.3,5.8-1.3c2.49,0,4-.65,4.5-2a16.26,16.26,0,0,0,.3-3.38,3.62,3.62,0,0,0-1.54-3.32,8.92,8.92,0,0,0-4.68-.95H704.72V98.46h15.4C724.14,98.4,726.1,96.27,726.1,92Z"/><path class="cls-3" d="M278.71,118.66a35,35,0,0,1-26-11.09A36.77,36.77,0,0,1,242,81.26a39.94,39.94,0,0,1,6.17-21.67,36.26,36.26,0,0,1,4.83-6,37.39,37.39,0,0,1,11.58-7.73A34.4,34.4,0,0,1,278.12,43a35.78,35.78,0,0,1,25.82,10.75c7.25,7.12,11,16.09,11,26.67a43.22,43.22,0,0,1-6.55,22.22,2.37,2.37,0,0,1-4-2.6,38,38,0,0,0,5.77-19.56,31.8,31.8,0,0,0-9.6-23.35,30.79,30.79,0,0,0-22.5-9.39,29.7,29.7,0,0,0-11.69,2.48,32.64,32.64,0,0,0-10.11,6.74,31.48,31.48,0,0,0-4.17,5.22,35.24,35.24,0,0,0-5.42,19.13,32.06,32.06,0,0,0,9.32,23,30.06,30.06,0,0,0,22.67,9.67,28.87,28.87,0,0,0,20.21-7.62,2.37,2.37,0,0,1,3.18,3.52A33.85,33.85,0,0,1,278.71,118.66ZM278.48,102a19.34,19.34,0,0,1-13.73-5.88c-4.05-3.85-6.11-9-6.11-15.27a21.29,21.29,0,0,1,3.55-12.3,2.37,2.37,0,0,1,3.91,2.68,16.66,16.66,0,0,0-2.72,9.62c0,5,1.52,8.87,4.65,11.85a14.59,14.59,0,0,0,10.45,4.56,14.82,14.82,0,0,0,10.39-4.44c3.09-2.93,4.65-6.94,4.65-11.9s-1.52-9-4.65-12a14.73,14.73,0,0,0-10.45-4.5,13.69,13.69,0,0,0-7.58,2.2,2.37,2.37,0,1,1-2.48-4,18.49,18.49,0,0,1,10.06-2.9,19.5,19.5,0,0,1,13.71,5.8c4.07,3.87,6.13,9.07,6.13,15.46s-2.06,11.48-6.13,15.34A19.41,19.41,0,0,1,278.48,102Z"/><path class="cls-3" d="M361.92,118.19a7.05,7.05,0,0,1-4.18-1.35,9.63,9.63,0,0,1-2.29-2.43l-.13-.22c-.61-1.17-2.41-5.33-6.78-15.69l-1.23.08h-.56c-5.51,0-9.36-4.36-9.36-10.6V87.8c0-6.24,3.85-10.6,9.36-10.6h.55a6.39,6.39,0,0,0,4-1.51l.08-.06c.84-.65,1.81-1.73,1.81-4.35s-1-3.8-1.81-4.4l-.09-.07a6.62,6.62,0,0,0-4.13-1.57h-3.58a5.87,5.87,0,0,0-5.86,5.86V83.83a2.37,2.37,0,0,1-4.74,0V71.1a10.61,10.61,0,0,1,10.6-10.6h3.68a11.32,11.32,0,0,1,7.05,2.66,9.74,9.74,0,0,1,3.6,8.12,9.67,9.67,0,0,1-3.6,8.06,11.09,11.09,0,0,1-6.87,2.6h-.66c-4.29,0-4.62,4.49-4.62,5.86V88c0,1.38.33,5.86,4.62,5.86h.34l2.83-.17a2.38,2.38,0,0,1,2.33,1.45c3.28,7.79,6.41,15.18,7.2,16.77a4.86,4.86,0,0,0,1.07,1.13,2.26,2.26,0,0,0,1.5.44,11.77,11.77,0,0,0,4-1.09l.07,0c2.93-1.24,4.42-2.54,4.42-3.86a13,13,0,0,0-1.23-4c-1-2.2-1.86-4.2-2.66-6-.63-1.45-1.22-2.78-1.77-4l0-.06a10.94,10.94,0,0,1,1.26-10.5,21.59,21.59,0,0,0,3.66-12.61,21.86,21.86,0,0,0-2.24-10.09A19,19,0,0,0,362,54.14c-4.82-3.73-9.6-5.54-14.6-5.54H327c-3.38,0-4.92.65-5.24,1.27l-.09.15a3.9,3.9,0,0,0-.56,1.56,17.35,17.35,0,0,0-.1,2.81s0,.09,0,.13v52.18s0,.06,0,.08a13,13,0,0,0,.48,4.11c.57,1.6,3.65,1.84,5.44,1.84,3.38,0,4.92-.65,5.24-1.27a5.14,5.14,0,0,0,.64-1.71,17.35,17.35,0,0,0,.1-2.81s0-.09,0-.13V92.48a2.37,2.37,0,0,1,4.74,0v14.27a22.32,22.32,0,0,1-.13,3.58,9.55,9.55,0,0,1-1.16,3.35c-2,3.79-7.58,3.79-9.43,3.79-5.47,0-8.82-1.72-9.95-5.11l0-.08a17.7,17.7,0,0,1-.69-5.63V54.58a22.32,22.32,0,0,1,.13-3.58,8.71,8.71,0,0,1,1.18-3.4c2-3.74,7.57-3.74,9.4-3.74h20.31c6,0,11.89,2.2,17.5,6.54a23.7,23.7,0,0,1,6.92,8.76,26.44,26.44,0,0,1,2.71,12.16A26.48,26.48,0,0,1,370,86.6l0,0a6.18,6.18,0,0,0-.75,5.91c.55,1.23,1.13,2.56,1.77,4,.8,1.82,1.67,3.82,2.66,6l0,.07a16.45,16.45,0,0,1,1.6,5.81c0,5.09-5.43,7.43-7.27,8.21a16.34,16.34,0,0,1-5.65,1.5Z"/><path class="cls-3" d="M407.23,117.54h-.47a17.94,17.94,0,0,1-5.29-.67,6.23,6.23,0,0,1-3.91-3.15,9.67,9.67,0,0,1-1.07-3.19,2.37,2.37,0,0,1,4.69-.67,5,5,0,0,0,.57,1.64l0,.06a1.5,1.5,0,0,0,.94.73,13.24,13.24,0,0,0,4,.51h.18a13.52,13.52,0,0,0,4-.51,1.73,1.73,0,0,0,1-.83,4.34,4.34,0,0,0,.54-1.51,27.31,27.31,0,0,0,.1-2.9V73.77a2.37,2.37,0,1,1,4.74,0V107a30.87,30.87,0,0,1-.13,3.46v.07a9,9,0,0,1-1.13,3.23,6.42,6.42,0,0,1-3.9,3A18.71,18.71,0,0,1,407.23,117.54Zm-8.64-13.1a2.37,2.37,0,0,1-2.37-2.37V62.16H380.52a12.56,12.56,0,0,1-5.47-.95,6.05,6.05,0,0,1-3.13-3.62l0-.08a15.14,15.14,0,0,1-.56-4.59,15.13,15.13,0,0,1,.56-4.53,5.62,5.62,0,0,1,2.76-3.48l.2-.1a12.72,12.72,0,0,1,5.8-1h52.22a12.55,12.55,0,0,1,5.47.95,5.74,5.74,0,0,1,3.1,3.75A15,15,0,0,1,442,53a15.13,15.13,0,0,1-.56,4.53A5.62,5.62,0,0,1,438.68,61l-.2.1a12.67,12.67,0,0,1-5.8,1h-15.5v2.43a2.37,2.37,0,0,1-4.74,0v-4.8a2.37,2.37,0,0,1,2.37-2.37h18.11a7.8,7.8,0,0,0,3.58-.59.85.85,0,0,0,.36-.5,10.24,10.24,0,0,0,.4-3.19c0-.07,0-.14,0-.21a10.47,10.47,0,0,0-.39-3.24,1.06,1.06,0,0,0-.55-.67l-.06,0a8.12,8.12,0,0,0-3.38-.46H380.41a7.87,7.87,0,0,0-3.58.59.86.86,0,0,0-.36.5,10.22,10.22,0,0,0-.4,3.19q0,.1,0,.21a10.42,10.42,0,0,0,.38,3.19,1.29,1.29,0,0,0,.63.72l.06,0a8.12,8.12,0,0,0,3.38.46h18.06A2.37,2.37,0,0,1,401,59.79v42.29A2.37,2.37,0,0,1,398.58,104.44Z"/><path class="cls-3" d="M485,118.49a7.38,7.38,0,0,1-4.07-1.23,7.79,7.79,0,0,1-2.45-2.55l0-.06c-.21-.39-.46-.87-.77-1.46l-.73-1.41,0-.07-4.27-8.85h-7.22l-1.18-.06a9.2,9.2,0,0,1-3.55-1,9.15,9.15,0,0,1-4.21-12.28,9.5,9.5,0,0,1,7.1-5.24l-2.54-5.22L457,87.59a2.37,2.37,0,0,1-4.27-2.06l6.22-12.91a2.37,2.37,0,0,1,2.13-1.34h0a2.37,2.37,0,0,1,2.13,1.33l6.28,12.91a2.37,2.37,0,0,1-2.13,3.4h-2.25a4.78,4.78,0,0,0-4.32,2.68,4.44,4.44,0,0,0-.23,3.44,4.39,4.39,0,0,0,2.26,2.53,4.5,4.5,0,0,0,1.73.48l1.09.05h8.53a2.37,2.37,0,0,1,2.13,1.34l4.9,10.15.73,1.41c.27.53.5,1,.7,1.33a3.12,3.12,0,0,0,1,1,2.55,2.55,0,0,0,1.58.44h.13a10,10,0,0,0,4-1.35c1.54-.78,4.14-2.35,4.14-4,0-.24-.1-1.23-1.35-3.74l-25.42-52.5c-1.25-2.46-2.92-3.58-5.39-3.58a5.9,5.9,0,0,0-3.17.93A5.5,5.5,0,0,0,455.83,52l0,.08-25.41,52.59c-1.27,2.53-1.36,3.52-1.36,3.77,0,1.64,2.58,3.16,4.13,3.91a10,10,0,0,0,4,1.36h.13a2.68,2.68,0,0,0,1.54-.47,5.5,5.5,0,0,0,1.1-1.09c.31-.53.75-1.35,1.34-2.48l8.1-16.78a2.37,2.37,0,0,1,4.27,2.06l-8.11,16.82,0,.07c-.69,1.32-1.17,2.21-1.55,2.84l-.12.17a10.3,10.3,0,0,1-2.24,2.24l-.08.06a7.39,7.39,0,0,1-4.4,1.29,14.29,14.29,0,0,1-6-1.85c-4.48-2.2-6.76-5-6.76-8.16a14,14,0,0,1,1.85-5.86L451.51,50a10.16,10.16,0,0,1,4.06-4.52,10.58,10.58,0,0,1,5.67-1.65c4.23,0,7.56,2.15,9.63,6.21l25.43,52.52a13.89,13.89,0,0,1,1.84,5.83c0,3.18-2.27,5.94-6.74,8.21a14.31,14.31,0,0,1-6,1.86Z"/><path class="cls-3" d="M544,118.54c-2.35,0-4.77-1.52-7.59-4.78l-9.88-11.24a2.37,2.37,0,0,1,3.56-3.13L540,110.64c2.61,3,3.81,3.16,4,3.16.37,0,1.78-.19,4.59-2.67s2.93-3.69,2.93-3.91c0-.46-.24-1.79-2.47-4.28-4-4.57-10.81-11.52-20.31-20.66a2.37,2.37,0,0,1,0-3.42l3.73-3.55a137.74,137.74,0,0,0,11.89-12.86c.95-1.14,1.84-2.21,2.77-3.27,2-2.27,2.26-3.56,2.26-4.13,0-.3-.21-1.46-2.93-3.85s-4.16-2.67-4.65-2.67c-.32,0-1.53.22-3.95,3-2.05,2.4-4.08,5-6.22,7.68-3.35,4.25-7.15,9.07-12.34,14.91a2.37,2.37,0,0,1-4.14-1.57V54.64s0-.06,0-.08a17.09,17.09,0,0,0-.38-4.14c-.7-1.57-3.76-1.81-5.54-1.81-3.38,0-4.92.65-5.24,1.27a5.16,5.16,0,0,0-.64,1.71c0,.3-.1,1.48-.1,5.49a2.37,2.37,0,0,1-4.74,0c0-3.32,0-5.25.13-6.07a9.56,9.56,0,0,1,1.16-3.35c2-3.79,7.58-3.79,9.43-3.79,5.46,0,8.84,1.7,10,5.06a2.49,2.49,0,0,1,.08.29,21.92,21.92,0,0,1,.53,5.47V66.23c3.11-3.69,5.68-6.94,8-9.92,2.17-2.76,4.22-5.36,6.34-7.83,2.75-3.19,5.14-4.68,7.54-4.68s4.84,1.26,7.78,3.85c3.09,2.72,4.53,5.08,4.53,7.4s-1.12,4.57-3.42,7.24c-.89,1-1.77,2.08-2.7,3.19a141.91,141.91,0,0,1-12.26,13.26l-1.94,1.85c8.68,8.4,15,14.86,18.8,19.22,2.46,2.74,3.66,5.17,3.66,7.42s-1.48,4.78-4.53,7.46S546.24,118.54,544,118.54Zm-34.82-.95c-5.48,0-8.83-1.75-10-5.19a17.1,17.1,0,0,1-.71-5.57V66.6a2.37,2.37,0,0,1,4.74,0v40.27s0,.06,0,.09a12.28,12.28,0,0,0,.49,4c.5,1.55,3.23,1.88,5.43,1.88,3.38,0,4.92-.65,5.24-1.27l.06-.11a5.5,5.5,0,0,0,.59-1.6c.09-1,.09-1.93.09-3V88.57A2.37,2.37,0,0,1,519.29,87l5,5.69a2.37,2.37,0,0,1-3.57,3.12l-.82-.94v12.05a33.21,33.21,0,0,1-.13,3.56c0,.07,0,.14,0,.22a10.25,10.25,0,0,1-1.14,3.11C516.57,117.59,511,117.59,509.16,117.59Z"/><path class="cls-3" d="M601.86,117.66H567.61c-5.48,0-8.83-1.75-10-5.19a17.09,17.09,0,0,1-.71-5.57V92.36a2.37,2.37,0,1,1,4.74,0v14.57s0,.06,0,.09a12.28,12.28,0,0,0,.49,4c.5,1.55,3.23,1.88,5.43,1.88h33.9a8.38,8.38,0,0,0,3.79-.71.92.92,0,0,0,.35-.55,10.83,10.83,0,0,0,.4-3.31q0-.1,0-.2a10.78,10.78,0,0,0-.38-3.25,1.29,1.29,0,0,0-.63-.72l-.06,0a8.3,8.3,0,0,0-3.44-.46H576a2.37,2.37,0,0,1-2.37-2.37V54.64s0-.06,0-.08a17,17,0,0,0-.38-4.14c-.7-1.57-3.76-1.81-5.54-1.81-3.38,0-4.92.65-5.24,1.27a5.23,5.23,0,0,0-.64,1.68,28.7,28.7,0,0,0-.1,3v29a2.37,2.37,0,1,1-4.74,0v-29a32.41,32.41,0,0,1,.13-3.51v-.07a9.53,9.53,0,0,1,1.15-3.3c2-3.79,7.58-3.79,9.43-3.79,5.46,0,8.84,1.7,10,5.06a2.34,2.34,0,0,1,.08.29,21.87,21.87,0,0,1,.53,5.47V98.94h23.22a12.55,12.55,0,0,1,5.53.95,6.06,6.06,0,0,1,3.13,3.62l0,.08a19.63,19.63,0,0,1,0,9.3,5.48,5.48,0,0,1-2.82,3.57l-.07,0A13,13,0,0,1,601.86,117.66Z"/><path class="cls-3" d="M672.24,118.49a7.38,7.38,0,0,1-4.07-1.23,7.78,7.78,0,0,1-2.45-2.56l0-.06c-.21-.39-.47-.89-.78-1.49l-.72-1.39,0-.07-4.27-8.85h-7.22l-1.18-.06a9.2,9.2,0,0,1-3.55-1,9.15,9.15,0,0,1-4.2-12.28,9.5,9.5,0,0,1,7.1-5.24l-2.54-5.22-4.09,8.5a2.37,2.37,0,0,1-4.27-2.06l6.22-12.91a2.37,2.37,0,0,1,2.13-1.34h0a2.37,2.37,0,0,1,2.13,1.33l6.28,12.91a2.37,2.37,0,0,1-2.13,3.4H652.3A4.78,4.78,0,0,0,648,91.6a4.43,4.43,0,0,0-.23,3.44A4.38,4.38,0,0,0,650,97.57a4.49,4.49,0,0,0,1.73.48l1.09.05h8.53a2.37,2.37,0,0,1,2.13,1.34l4.9,10.15.71,1.38c.28.54.51,1,.71,1.36a3.12,3.12,0,0,0,1,1,2.56,2.56,0,0,0,1.58.44h.13a10,10,0,0,0,4-1.35c1.54-.78,4.14-2.35,4.14-4,0-.24-.1-1.23-1.35-3.74l-25.42-52.5c-1.25-2.46-2.92-3.58-5.39-3.58a5.9,5.9,0,0,0-3.17.93A5.5,5.5,0,0,0,643,52l0,.08L617.6,104.65c-1.27,2.53-1.36,3.52-1.36,3.77,0,1.64,2.58,3.16,4.12,3.92a10,10,0,0,0,4,1.36h.13a2.65,2.65,0,0,0,1.54-.47,5.53,5.53,0,0,0,1.1-1.09c.31-.53.75-1.35,1.34-2.47l8.1-16.78a2.37,2.37,0,1,1,4.27,2.06l-8.11,16.82,0,.07c-.69,1.32-1.17,2.21-1.55,2.84l-.12.17a10.29,10.29,0,0,1-2.24,2.24l-.08.06a7.38,7.38,0,0,1-4.4,1.29,14.29,14.29,0,0,1-6-1.85c-4.48-2.2-6.76-5-6.76-8.16a14,14,0,0,1,1.85-5.86L638.72,50a10.16,10.16,0,0,1,4.06-4.52,10.59,10.59,0,0,1,5.67-1.65c4.23,0,7.57,2.15,9.63,6.21l25.43,52.52a13.89,13.89,0,0,1,1.84,5.83c0,3.18-2.27,5.94-6.74,8.21a14.32,14.32,0,0,1-6,1.86Z"/><path class="cls-3" d="M721.54,117.42H696.37c-5.48,0-8.83-1.75-10-5.19l0-.14a19.61,19.61,0,0,1-.67-5.55V54.4a33.22,33.22,0,0,1,.13-3.56v-.06A8.37,8.37,0,0,1,687,47.48c2-3.74,7.57-3.74,9.4-3.74h23.69a21.89,21.89,0,0,1,16.19,6.74,22.35,22.35,0,0,1,6.79,16.36,21.77,21.77,0,0,1-3,11.18A24.77,24.77,0,0,1,738,110.38,22.89,22.89,0,0,1,721.54,117.42Zm-30.6-6.6c.56,1.54,3.25,1.86,5.43,1.86h24.76a18.23,18.23,0,0,0,13.51-5.61,19.57,19.57,0,0,0,5.8-14.16,19.85,19.85,0,0,0-5-13.13,2.37,2.37,0,0,1-.18-2.91,17.2,17.2,0,0,0,3.08-10s0-.06,0-.09A17.59,17.59,0,0,0,733,53.85l-.06-.06a17.19,17.19,0,0,0-12.75-5.31H696.43c-3.38,0-4.92.65-5.24,1.27l-.09.15a3.69,3.69,0,0,0-.55,1.47,29.61,29.61,0,0,0-.1,3v52.18s0,.06,0,.09A14.81,14.81,0,0,0,690.94,110.81Zm29.24-10h-15.4a2.37,2.37,0,0,1-2.37-2.37V83.24a2.37,2.37,0,1,1,4.74,0V96h13c2.25,0,3.55-.66,3.55-4,0,0,0-.08,0-.12a6.77,6.77,0,0,0-.39-2.62,1.08,1.08,0,0,0-.42-.53,12.26,12.26,0,0,0-4.27-.59h-.08c-2.87,0-5-.59-6.56-1.81-1.72-1.36-2.56-3.73-2.56-7.25s.86-5.86,2.62-7.25S716,70,719.35,70a4.52,4.52,0,0,0,2.24-.38,14.78,14.78,0,0,0,.19-2.58c0-1-.31-1.23-.46-1.33s-1.12-.57-3.39-.57H707.15v9.42a2.37,2.37,0,1,1-4.74,0V62.81a2.37,2.37,0,0,1,2.37-2.37h13.15a10.93,10.93,0,0,1,6,1.33,5.91,5.91,0,0,1,2.62,5.31,18.24,18.24,0,0,1-.35,3.86,2.46,2.46,0,0,1-.09.32c-.58,1.6-2.22,3.51-6.73,3.51-2.71,0-3.88.45-4.38.83-.35.28-.77,1.37-.77,3.49,0,2.79.63,3.43.76,3.53.46.36,1.45.79,3.59.79a17,17,0,0,1,6.08.9l.22.09a5.79,5.79,0,0,1,3,3.25,11.41,11.41,0,0,1,.67,4.41C728.45,97.6,725.43,100.77,720.18,100.77Z"/><path id="bowl1" class="cls-1" d="M243.95,109.18,226,77.5a4.75,4.75,0,0,1-.65-2.37V48.77h.59a1.34,1.34,0,0,0,1.36-1.36V46.7a1.34,1.34,0,0,0-1.36-1.36H211.49a1.34,1.34,0,0,0-1.36,1.36h0v.71a1.34,1.34,0,0,0,1.36,1.36h.59V75.13a4.75,4.75,0,0,1-.65,2.37l-17.95,31.69a4.84,4.84,0,0,0,1.84,6.57,4.75,4.75,0,0,0,2.37.65H239.8a4.83,4.83,0,0,0,4.86-4.8A5.77,5.77,0,0,0,243.95,109.18Z"/><g id="bowl1-2"><path class="cls-3" d="M232.22,90.94a2.37,2.37,0,0,1-2.07-1.21l-6.22-11.07a7,7,0,0,1-1-3.53V48.77a2.36,2.36,0,0,1,.25-1.07h-9a2.36,2.36,0,0,1,.25,1.07v5.39a2.37,2.37,0,1,1-4.74,0V50.71a3.69,3.69,0,0,1-2-3.3V46.7A3.69,3.69,0,0,1,211.49,43h14.45a3.69,3.69,0,0,1,3.73,3.73v.71a3.69,3.69,0,0,1-2,3.3V75.13A2.38,2.38,0,0,0,228,76.3l6.24,11.11a2.37,2.37,0,0,1-2.06,3.53Z"/></g><g id="bowl1-3"><path class="cls-3" d="M239.8,118.78H197.69A7.23,7.23,0,0,1,191.42,108l17.95-31.69a2.41,2.41,0,0,0,.34-1.2V62.51a2.37,2.37,0,1,1,4.74,0V75.13a7.08,7.08,0,0,1-1,3.56l-17.93,31.66a2.51,2.51,0,0,0,2.14,3.69H239.8a2.46,2.46,0,0,0,2.49-2.43,2.37,2.37,0,0,0-.33-1.17L233.71,95.9a2.37,2.37,0,1,1,4.12-2.34l8.23,14.51a7.05,7.05,0,0,1,1,3.54A7.2,7.2,0,0,1,239.8,118.78Z"/></g><path id="liquid1" class="cls-4" d="M233.64,98.52H204.21l-4.56,8.41a4.35,4.35,0,0,0,3.55,6.51h31.51a4.35,4.35,0,0,0,3.55-6.51Z"/><g id="bubble_b" data-name="bubble b"><circle class="cls-5" cx="216.05" cy="104.15" r="2.07"/></g><g id="bubble_l" data-name="bubble l"><circle class="cls-6" cx="212.74" cy="108.71" r="1.54"/></g></g></g></svg>