<?xml version="1.0" encoding="utf-8"?>
<!-- Generator: Adobe Illustrator 21.1.0, SVG Export Plug-In . SVG Version: 6.00 Build 0)  -->
<svg version="1.1" id="Layer_1" xmlns="http://www.w3.org/2000/svg" xmlns:xlink="http://www.w3.org/1999/xlink" x="0px" y="0px"
	 viewBox="0 0 936.5 128" style="enable-background:new 0 0 936.5 128;" xml:space="preserve">
<style type="text/css">
	.st0{display:none;}
	.st1{display:inline;fill:#A03232;}
	.st2{display:inline;}
	.st3{fill:#D0DBFF;}
	.st4{fill:none;}
	.st5{fill:none;stroke:#262535;stroke-linecap:round;stroke-linejoin:round;}
	.st6{fill:none;stroke:#262535;stroke-width:8;stroke-linecap:round;stroke-linejoin:round;}
	.st7{fill:#676386;}
	.st8{display:none;fill:#B0C3FF;}
	.st9{fill:#D0CEE0;}
	.st10{fill:#A19DC2;}
</style>
<g id="Layer_2_1_" class="st0">
	<rect x="-28" y="-30" class="st1" width="998" height="184"/>
</g>
<g id="Layer_1_1_" class="st0">
	<title>Asset 1</title>
	<g id="Layer_2" class="st2">
		<g id="Layer_1-2">
			<path class="st3" d="M148,4c15.7,0,29.3,5.7,40.8,17s17.3,25.4,17.4,42.2c0,16.8-5.5,31.1-16.5,42.9s-24.6,17.7-40.6,17.7
				c-16.1,0-29.8-5.8-41.1-17.5c-11-11-17.1-26-16.9-41.6C91,56.2,92.7,47.8,95.9,40c2.9-7.2,7.2-13.8,12.7-19.3
				c5.3-5.2,11.5-9.3,18.3-12.2C133.5,5.6,140.7,4,148,4z M119.1,63.9c0,9.4,3,17.1,9.1,23c6.1,5.9,12.9,8.8,20.4,8.8
				s14.3-2.9,20.3-8.6s9.1-13.4,9.1-23s-3-17.4-9.1-23.2s-12.9-8.7-20.4-8.7s-14.3,2.9-20.3,8.8C122.1,46.8,119.1,54.5,119.1,63.9
				L119.1,63.9z"/>
			<path class="st3" d="M244.6,61.7V47.5c0-7.7,6.2-13.9,13.9-13.9l0,0h6.1c3.5,0.1,6.8,1.3,9.5,3.6c3.1,2.4,4.6,5.9,4.6,10.6
				s-1.5,8.1-4.6,10.5c-2.6,2.2-5.8,3.4-9.2,3.5h-1c-7.7,0-11.8,6.2-11.8,13.9V76c0,7.7,4.1,13.9,11.8,13.9h0.7l4.9-0.3
				c7.2,17.1,11.3,26.7,12.4,28.8c0.8,1.2,1.8,2.3,2.9,3.1c1.5,1.1,3.3,1.6,5.1,1.5c2.8-0.2,5.6-1,8.2-2.2c6.6-2.8,9.9-6.1,9.9-10.2
				c0-1.7-0.8-4.4-2.4-8.3c-3-6.7-5.4-12.3-7.5-17c-1.9-4.6-1.2-9.9,1.7-13.9c4.6-6.7,6.9-14.5,6.9-23.6c0.1-6.5-1.3-12.9-4.2-18.8
				c-2.4-5.2-6-9.8-10.5-13.3c-8.8-6.8-17.8-10.2-27.1-10.2h-34.3c-6.8,0-10.9,1.4-12.4,4.3c-0.8,1.3-1.3,2.7-1.5,4.2
				c-0.2,1.8-0.3,3.7-0.2,5.5v88.1c-0.1,2.8,0.2,5.6,1,8.3c1.3,3.9,5.6,5.9,13,5.9c6.8,0,10.9-1.4,12.4-4.3c0.7-1.3,1.3-2.7,1.5-4.2
				c0.2-1.8,0.3-3.7,0.2-5.5v-18"/>
			<path class="st3" d="M321.1,5.3h88.3c3.4,0,5.9,0.4,7.5,1.2c1.5,0.7,2.7,2.1,3.2,3.7c0.6,2.2,0.9,4.4,0.8,6.7
				c0.1,2.2-0.2,4.4-0.8,6.6c-0.4,1.5-1.4,2.7-2.7,3.4c-2.6,1.1-5.3,1.6-8.1,1.4H379v79.9c0,1.8,0,3.6-0.2,5.4
				c-0.2,1.4-0.7,2.8-1.4,4c-0.9,1.6-2.4,2.8-4.2,3.3c-2.6,0.7-5.3,1.1-7.9,1c-2.7,0.1-5.3-0.3-7.9-1c-1.8-0.5-3.3-1.7-4.1-3.3
				c-0.7-1.3-1.2-2.7-1.4-4.1c-0.2-1.8-0.3-3.7-0.2-5.5V28.4h-30.5c-3.4,0-5.9-0.4-7.5-1.2c-1.5-0.7-2.7-2.1-3.2-3.7
				c-0.6-2.2-0.9-4.4-0.8-6.7c-0.1-2.2,0.2-4.4,0.8-6.6c0.4-1.5,1.4-2.7,2.7-3.4C315.5,5.7,318.3,5.2,321.1,5.3z"/>
			<line class="st4" x1="448" y1="90.2" x2="451.3" y2="83.5"/>
			<path class="st3" d="M446.4,73.6l10.5-21.8l10.6,21.8h-3.8c-4.6,0-8.9,2.6-10.9,6.8l0,0c-2.8,5.7-0.5,12.6,5.3,15.4
				c1.4,0.7,2.9,1.1,4.4,1.2l2,0.1H479l8.3,17.2c1.1,2.1,1.9,3.7,2.5,4.8c0.7,1.2,1.7,2.2,2.9,3c1.5,1,3.3,1.5,5.1,1.4
				c2.1,0,4.9-0.9,8.5-2.7c6.1-3.1,9.2-6.5,9.2-10.3c0-1.8-0.9-4.5-2.7-8.1l-42.9-88.6c-2.8-5.5-7-8.3-12.7-8.3
				c-2.7,0-5.3,0.8-7.5,2.2c-2.3,1.4-4.2,3.4-5.3,5.9l-42.9,88.8c-1.8,3.6-2.7,6.3-2.7,8.1c0,3.8,3.1,7.2,9.2,10.2
				c3.6,1.8,6.4,2.7,8.5,2.7c1.8,0.1,3.6-0.5,5.1-1.5c1.1-0.8,2.1-1.8,2.9-2.9c0.6-1,1.4-2.5,2.5-4.6l8.3-17.1"/>
			<path class="st3" d="M574,63.4c16.2,15.6,27.7,27.3,34.5,35.1c3.5,3.9,5.2,7.2,5.2,9.9s-2.1,5.9-6.4,9.5
				c-4.2,3.7-7.7,5.5-10.4,5.5s-5.9-2.2-9.8-6.7l-34.9-39.9v31c0,1.9,0,3.7-0.2,5.6c-0.3,1.5-0.8,2.9-1.5,4.1
				c-1.5,2.9-5.6,4.3-12.4,4.3c-7.4,0-11.7-2-13-6c-0.8-2.6-1.1-5.4-1-8.1V19.5c0-1.8,0-3.7,0.2-5.5c0.2-1.5,0.8-2.9,1.5-4.2
				c1.5-2.9,5.6-4.3,12.4-4.3c7.4,0,11.8,2,13.2,5.9c0.6,2.7,0.9,5.5,0.8,8.3V50c14.4-16.2,22.4-27.7,31.3-38.1
				c3.7-4.3,6.9-6.5,9.7-6.5s6.3,1.8,10.5,5.5s6.3,6.8,6.3,9.5s-1.6,5.9-4.8,9.6c-6.2,7.1-12,15.1-25,27.5L574,63.4z"/>
			<path class="st3" d="M650.9,98.4h43.2c3.5,0,6,0.4,7.6,1.2c1.5,0.7,2.7,2.1,3.2,3.7c0.6,2.2,0.9,4.5,0.8,6.8
				c0.1,2.3-0.2,4.6-0.8,6.8c-0.4,1.5-1.3,2.8-2.7,3.5c-2.6,1.2-5.4,1.7-8.3,1.6h-57.2c-7.4,0-11.7-2-13-6c-0.8-2.6-1.1-5.4-1-8.1
				V19.5c0-1.8,0-3.6,0.2-5.5c0.2-1.5,0.8-2.9,1.5-4.2c1.5-2.9,5.6-4.3,12.4-4.3c7.4,0,11.8,2,13.2,5.9c0.6,2.7,0.9,5.5,0.8,8.3
				L650.9,98.4z"/>
			<line class="st4" x1="764.2" y1="90.2" x2="767.4" y2="83.5"/>
			<path class="st3" d="M762.6,73.6l10.5-21.8l10.6,21.8H780c-4.6,0-8.9,2.6-10.9,6.8l0,0c-2.8,5.7-0.5,12.6,5.3,15.4
				c1.4,0.7,2.9,1.1,4.4,1.2l2,0.1h14.4l8.3,17.2c1.1,2.1,1.9,3.7,2.5,4.8c0.7,1.2,1.7,2.2,2.9,3c1.5,1,3.3,1.5,5.1,1.4
				c2.1,0,4.9-0.9,8.5-2.7c6.1-3.1,9.2-6.5,9.2-10.3c0-1.8-0.9-4.5-2.7-8.1l-43-88.7c-2.8-5.5-7-8.3-12.7-8.3
				c-2.7,0-5.3,0.8-7.5,2.2c-2.3,1.4-4.2,3.4-5.3,5.9l-42.9,88.8c-1.8,3.6-2.7,6.3-2.7,8.1c0,3.8,3.1,7.2,9.2,10.2
				c3.6,1.8,6.4,2.7,8.5,2.7c1.8,0.1,3.6-0.5,5.1-1.5c1.1-0.8,2.1-1.8,2.9-2.9c0.6-1,1.4-2.5,2.5-4.6l8.3-17.2"/>
			<path class="st3" d="M923.2,59.5c6.1,6.9,9.4,15.8,9.4,24.9c-0.2,10.6-3.8,19.5-10.9,26.6c-6.7,7-16,10.9-25.7,10.7h-41.8
				c-7.4,0-11.7-2-13-6c-0.7-2.7-1.1-5.5-1-8.3V19.3c0-1.9,0-3.7,0.2-5.6c0.2-1.5,0.7-2.8,1.5-4.1c1.5-2.9,5.6-4.3,12.4-4.3h40
				c9.2-0.2,18.1,3.5,24.5,10.2c6.7,6.5,10.5,15.4,10.3,24.8C929.2,47.1,927.1,53.8,923.2,59.5z M904.4,82.8c0.1-2-0.2-4.1-0.9-6
				c-0.5-1.4-1.6-2.6-2.9-3.2c-2.9-1-5.9-1.4-8.9-1.3c-3.8,0-6.7-0.7-8.6-2.2s-2.9-4.5-2.9-9.1s1-7.6,2.9-9.1c2-1.5,5.2-2.2,9.8-2.2
				c4.2,0,6.8-1.1,7.6-3.3c0.4-1.9,0.5-3.8,0.5-5.7c0-2.7-0.9-4.5-2.6-5.6s-4.4-1.6-7.9-1.6h-22.2v60.2h26
				C901.1,93.6,904.4,90,904.4,82.8z"/>
			<path class="st5" d="M178.1,64.1"/>
			<path class="st6" d="M185.8,109.9c-10.3,9.3-22.5,13.9-36.8,13.9c-16.1,0-29.8-5.8-41.1-17.5c-11-11-17.1-26-16.9-41.6
				c-0.1-12.2,3.3-24.2,9.8-34.5c2.2-3.4,4.7-6.6,7.6-9.5c5.3-5.2,11.5-9.3,18.3-12.2c6.8-2.9,14-4.5,21.3-4.5
				c15.7,0,29.3,5.7,40.8,17s17.3,25.4,17.4,42.2c0.2,10.5-2.3,20.9-7.3,30.1 M124.4,45.5c-3.5,5.1-5.3,11.3-5.3,18.5
				c0,9.4,3,17.1,9.1,22.9c6.1,5.9,12.9,8.8,20.4,8.8s14.3-2.9,20.3-8.6s9.1-13.4,9.1-23s-3-17.4-9.1-23.2s-12.9-8.7-20.4-8.7
				c-4.3,0-8.5,1-12.3,2.9"/>
			<path class="st6" d="M244.6,61.7V47.5c0-7.7,6.2-13.9,13.9-13.9l0,0h6.1c3.5,0.1,6.8,1.3,9.5,3.6c3.1,2.4,4.6,5.9,4.6,10.6
				s-1.5,8.1-4.6,10.5c-2.6,2.2-5.8,3.4-9.2,3.5h-1c-7.7,0-11.8,6.2-11.8,13.9V76c0,7.7,4.1,13.9,11.8,13.9h0.7l4.9-0.3
				c7.2,17.1,11.3,26.7,12.4,28.8c0.8,1.2,1.8,2.3,2.9,3.1c1.5,1.1,3.3,1.6,5.1,1.5c2.8-0.2,5.6-1,8.2-2.2c6.6-2.8,9.9-6.1,9.9-10.2
				c0-1.7-0.8-4.4-2.4-8.3c-3-6.7-5.4-12.3-7.5-17c-1.9-4.6-1.2-9.9,1.7-13.9c4.6-6.7,6.9-14.5,6.9-23.6c0.1-6.5-1.3-12.9-4.2-18.8
				c-2.4-5.2-6-9.8-10.5-13.3c-8.8-6.8-17.8-10.2-27.1-10.2h-34.3c-6.8,0-10.9,1.4-12.4,4.3c-0.8,1.3-1.3,2.7-1.5,4.2
				c-0.2,1.8-0.3,3.7-0.2,5.5v88.1c-0.1,2.8,0.2,5.6,1,8.3c1.3,3.9,5.6,5.9,13,5.9c6.8,0,10.9-1.4,12.4-4.3c0.7-1.3,1.3-2.7,1.5-4.2
				c0.2-1.8,0.3-3.7,0.2-5.5v-18"/>
			<path class="st6" d="M378.9,56.4v51.8c0,1.8,0,3.6-0.2,5.4c-0.2,1.4-0.7,2.8-1.4,4c-0.9,1.6-2.4,2.8-4.2,3.3
				c-2.6,0.7-5.3,1.1-7.9,1c-2.7,0.1-5.3-0.3-7.9-1c-1.8-0.5-3.3-1.7-4.1-3.3c-0.7-1.3-1.2-2.7-1.4-4.1 M351.4,95V28.4h-30.5
				c-3.4,0-5.9-0.4-7.5-1.2c-1.5-0.7-2.7-2.1-3.2-3.7c-0.6-2.2-0.9-4.4-0.8-6.7c-0.1-2.2,0.2-4.4,0.8-6.6c0.4-1.5,1.4-2.7,2.7-3.4
				c2.6-1.1,5.3-1.6,8.1-1.4h88.3c3.4,0,5.9,0.4,7.5,1.2c1.5,0.7,2.7,2.1,3.1,3.7c0.6,2.2,0.9,4.4,0.8,6.7c0.1,2.2-0.2,4.4-0.8,6.6
				c-0.4,1.5-1.4,2.7-2.7,3.4c-2.6,1.1-5.3,1.6-8.1,1.4h-30.3v8.1"/>
			<path class="st6" d="M446.4,73.6l10.5-21.8l10.6,21.8h-3.8c-4.6,0-8.9,2.6-10.9,6.8l0,0c-2.8,5.7-0.5,12.6,5.3,15.4
				c1.4,0.7,2.9,1.1,4.4,1.2l2,0.1H479l8.3,17.2c1.1,2.1,1.9,3.7,2.5,4.8c0.7,1.2,1.7,2.2,2.9,3c1.5,1,3.3,1.5,5.1,1.4
				c2.1,0,4.9-0.9,8.5-2.7c6.1-3.1,9.2-6.5,9.2-10.3c0-1.8-0.9-4.5-2.7-8.1l-42.9-88.6c-2.8-5.5-7-8.3-12.7-8.3
				c-2.7,0-5.3,0.8-7.5,2.2c-2.3,1.4-4.2,3.4-5.3,5.9l-42.9,88.8c-1.8,3.6-2.7,6.3-2.7,8.1c0,3.8,3.1,7.2,9.2,10.2
				c3.6,1.8,6.4,2.7,8.5,2.7c1.8,0.1,3.6-0.5,5.1-1.5c1.1-0.8,2.1-1.8,2.9-2.9c0.6-1,1.4-2.5,2.5-4.6l9.8-20.3"/>
			<path class="st6" d="M524.1,19.5c0-1.8,0-3.7,0.2-5.5c0.2-1.5,0.8-2.9,1.5-4.2c1.5-2.9,5.6-4.3,12.4-4.3c7.4,0,11.8,2,13.2,5.9
				c0.6,2.7,0.9,5.5,0.8,8.3V50c14.4-16.2,22.4-27.7,31.3-38.1c3.7-4.3,6.9-6.5,9.7-6.5s6.3,1.8,10.5,5.5s6.3,6.8,6.3,9.5
				s-1.6,5.9-4.8,9.6c-6.2,7.1-12,15.1-25,27.5l-6.3,6c16.2,15.6,27.7,27.3,34.5,35.1c3.5,3.9,5.2,7.2,5.2,9.9
				c0,2.7-2.1,5.9-6.3,9.6s-7.7,5.5-10.4,5.5s-5.9-2.2-9.8-6.7l-16.7-19 M560.6,86.6l-8.4-9.6v31c0,1.9,0,3.7-0.2,5.6
				c-0.3,1.5-0.8,2.9-1.5,4.1c-1.5,2.9-5.6,4.3-12.4,4.3c-7.4,0-11.7-2-13-6c-0.8-2.6-1.1-5.4-1-8.1v-68"/>
			<path class="st6" d="M622.8,68.5v-49c0-1.8,0-3.6,0.2-5.5c0.2-1.5,0.8-2.9,1.5-4.2c1.5-2.9,5.6-4.3,12.4-4.3
				c7.4,0,11.8,2,13.2,5.9c0.6,2.7,0.9,5.5,0.8,8.3v78.8h43.2c3.5,0,6,0.4,7.6,1.2c1.5,0.7,2.7,2.1,3.2,3.7c0.6,2.2,0.9,4.5,0.8,6.8
				c0.1,2.3-0.2,4.6-0.8,6.8c-0.4,1.5-1.3,2.8-2.7,3.5c-2.6,1.2-5.4,1.7-8.3,1.6h-57.1c-7.4,0-11.7-2-13-6c-0.8-2.6-1.1-5.4-1-8.1
				V94"/>
			<path class="st6" d="M762.6,73.6l10.5-21.8l10.6,21.8H780c-4.6,0-8.9,2.6-10.9,6.8l0,0c-2.8,5.7-0.5,12.6,5.3,15.4
				c1.4,0.7,2.9,1.1,4.4,1.2l2,0.1h14.4l8.3,17.2c1.1,2.1,1.9,3.7,2.5,4.8c0.7,1.2,1.7,2.2,2.9,3c1.5,1,3.3,1.5,5.1,1.4
				c2.1,0,4.9-0.9,8.5-2.7c6.1-3.1,9.2-6.5,9.2-10.3c0-1.8-0.9-4.5-2.7-8.1l-43-88.7c-2.8-5.5-7-8.3-12.7-8.3
				c-2.7,0-5.3,0.8-7.5,2.2c-2.3,1.4-4.2,3.4-5.3,5.9l-42.9,88.8c-1.8,3.6-2.7,6.3-2.7,8.1c0,3.8,3.1,7.2,9.2,10.2
				c3.6,1.8,6.4,2.7,8.5,2.7c1.8,0.1,3.6-0.5,5.1-1.5c1.1-0.8,2.1-1.8,2.9-2.9c0.6-1,1.4-2.5,2.5-4.6l9.8-20.3"/>
			<path class="st6" d="M923.2,59.5c6.1,6.9,9.4,15.8,9.4,24.9c-0.2,10.6-3.8,19.5-10.9,26.6c-6.7,7-16,10.9-25.7,10.7h-41.8
				c-7.4,0-11.7-2-13-6c-0.7-2.7-1.1-5.5-1-8.3V19.3c0-1.9,0-3.7,0.2-5.6c0.2-1.5,0.7-2.8,1.5-4.1c1.5-2.9,5.6-4.3,12.4-4.3h40
				c9.2-0.2,18.1,3.5,24.5,10.2c6.7,6.5,10.5,15.4,10.3,24.8C929.2,47.1,927.1,53.8,923.2,59.5z M868.4,71.7v21.9h26
				c6.7,0,10-3.6,10-10.8c0.1-2-0.2-4.1-0.9-6c-0.5-1.4-1.6-2.6-2.9-3.2c-2.9-1-5.9-1.4-8.9-1.3c-3.8,0-6.7-0.7-8.6-2.2
				s-2.8-4.5-2.8-9.1s1-7.6,2.9-9.1c2-1.5,5.2-2.2,9.8-2.2c4.2,0,6.8-1.1,7.6-3.3c0.4-1.9,0.5-3.8,0.5-5.7c0-2.7-0.9-4.5-2.6-5.6
				s-4.4-1.6-7.9-1.6h-22.2v16.7"/>
			<path id="bowl1" class="st3" d="M90.3,111.8L60,58.3c-0.7-1.2-1.1-2.6-1.1-4V9.8h1c1.3,0,2.3-1,2.3-2.3V6.3c0-1.3-1-2.3-2.3-2.3
				l0,0H35.5c-1.3,0-2.3,1-2.3,2.3l0,0v1.2c0,1.3,1,2.3,2.3,2.3l0,0h1v44.5c0,1.4-0.4,2.8-1.1,4L5.1,111.8
				c-2.2,3.9-0.8,8.9,3.1,11.1c1.2,0.7,2.6,1.1,4,1.1h71.1c4.5,0,8.2-3.6,8.2-8.1C91.4,114.4,91,113.1,90.3,111.8z"/>
			<path id="bowl1-2" class="st6" d="M70.5,77L60,58.3c-0.7-1.2-1.1-2.6-1.1-4V9.8h1c1.3,0,2.3-1,2.3-2.3V6.3c0-1.3-1-2.3-2.3-2.3
				l0,0H35.5c-1.3,0-2.3,1-2.3,2.3l0,0v1.2c0,1.3,1,2.3,2.3,2.3l0,0h1v9.1"/>
			<path id="bowl1-3" class="st6" d="M36.5,33v21.3c0,1.4-0.4,2.8-1.1,4L5.1,111.8c-2.2,3.9-0.8,8.9,3.1,11.1c1.2,0.7,2.6,1.1,4,1.1
				h71.1c4.5,0,8.2-3.6,8.2-8.1c0-1.4-0.4-2.8-1.1-4L76.5,87.4"/>
			<path id="liquid1" class="st7" d="M72.9,93.8H23.2L15.5,108c-2.7,4.9,0.7,11,6,11h53.2c5.3,0,8.7-6.1,6-11L72.9,93.8z"/>
			<path id="liquid1-2" class="st8" d="M72.9,93.8H23.2L15.5,108c-2.7,4.9,0.7,11,6,11h53.2c5.3,0,8.7-6.1,6-11L72.9,93.8z"/>
			<circle id="bubble_b" class="st9" cx="43.2" cy="103.3" r="3.5"/>
			<circle id="bubble_l" class="st10" cx="37.6" cy="111" r="2.6"/>
		</g>
	</g>
</g>
<g id="Layer_3">
	<title>Asset 1</title>
	<g id="Layer_1-2_1_">
		<path class="st3" d="M148,4c15.7,0,29.3,5.7,40.8,17s17.3,25.4,17.4,42.2c0,16.8-5.5,31.1-16.5,42.9s-24.6,17.7-40.6,17.7
			c-16.1,0-29.8-5.8-41.1-17.5c-11-11-17.1-26-16.9-41.6C91,56.2,92.7,47.8,95.9,40c2.9-7.2,7.2-13.8,12.7-19.3
			c5.3-5.2,11.5-9.3,18.3-12.2C133.5,5.6,140.7,4,148,4z M119.1,63.9c0,9.4,3,17.1,9.1,23c6.1,5.9,12.9,8.8,20.4,8.8
			s14.3-2.9,20.3-8.6s9.1-13.4,9.1-23s-3-17.4-9.1-23.2s-12.9-8.7-20.4-8.7s-14.3,2.9-20.3,8.8C122.1,46.8,119.1,54.5,119.1,63.9
			L119.1,63.9z"/>
		<path class="st3" d="M244.6,61.7V47.5c0-7.7,6.2-13.9,13.9-13.9l0,0h6.1c3.5,0.1,6.8,1.3,9.5,3.6c3.1,2.4,4.6,5.9,4.6,10.6
			s-1.5,8.1-4.6,10.5c-2.6,2.2-5.8,3.4-9.2,3.5h-1c-7.7,0-11.8,6.2-11.8,13.9V76c0,7.7,4.1,13.9,11.8,13.9h0.7l4.9-0.3
			c7.2,17.1,11.3,26.7,12.4,28.8c0.8,1.2,1.8,2.3,2.9,3.1c1.5,1.1,3.3,1.6,5.1,1.5c2.8-0.2,5.6-1,8.2-2.2c6.6-2.8,9.9-6.1,9.9-10.2
			c0-1.7-0.8-4.4-2.4-8.3c-3-6.7-5.4-12.3-7.5-17c-1.9-4.6-1.2-9.9,1.7-13.9c4.6-6.7,6.9-14.5,6.9-23.6c0.1-6.5-1.3-12.9-4.2-18.8
			c-2.4-5.2-6-9.8-10.5-13.3c-8.8-6.8-17.8-10.2-27.1-10.2h-34.3c-6.8,0-10.9,1.4-12.4,4.3c-0.8,1.3-1.3,2.7-1.5,4.2
			c-0.2,1.8-0.3,3.7-0.2,5.5v88.1c-0.1,2.8,0.2,5.6,1,8.3c1.3,3.9,5.6,5.9,13,5.9c6.8,0,10.9-1.4,12.4-4.3c0.7-1.3,1.3-2.7,1.5-4.2
			c0.2-1.8,0.3-3.7,0.2-5.5v-18"/>
		<path class="st3" d="M321.1,5.3h88.3c3.4,0,5.9,0.4,7.5,1.2c1.5,0.7,2.7,2.1,3.2,3.7c0.6,2.2,0.9,4.4,0.8,6.7
			c0.1,2.2-0.2,4.4-0.8,6.6c-0.4,1.5-1.4,2.7-2.7,3.4c-2.6,1.1-5.3,1.6-8.1,1.4H379v79.9c0,1.8,0,3.6-0.2,5.4
			c-0.2,1.4-0.7,2.8-1.4,4c-0.9,1.6-2.4,2.8-4.2,3.3c-2.6,0.7-5.3,1.1-7.9,1c-2.7,0.1-5.3-0.3-7.9-1c-1.8-0.5-3.3-1.7-4.1-3.3
			c-0.7-1.3-1.2-2.7-1.4-4.1c-0.2-1.8-0.3-3.7-0.2-5.5V28.4h-30.5c-3.4,0-5.9-0.4-7.5-1.2c-1.5-0.7-2.7-2.1-3.2-3.7
			c-0.6-2.2-0.9-4.4-0.8-6.7c-0.1-2.2,0.2-4.4,0.8-6.6c0.4-1.5,1.4-2.7,2.7-3.4C315.5,5.7,318.3,5.2,321.1,5.3z"/>
		<line class="st4" x1="448" y1="90.2" x2="451.3" y2="83.5"/>
		<path class="st3" d="M446.4,73.6l10.5-21.8l10.6,21.8h-3.8c-4.6,0-8.9,2.6-10.9,6.8l0,0c-2.8,5.7-0.5,12.6,5.3,15.4
			c1.4,0.7,2.9,1.1,4.4,1.2l2,0.1H479l8.3,17.2c1.1,2.1,1.9,3.7,2.5,4.8c0.7,1.2,1.7,2.2,2.9,3c1.5,1,3.3,1.5,5.1,1.4
			c2.1,0,4.9-0.9,8.5-2.7c6.1-3.1,9.2-6.5,9.2-10.3c0-1.8-0.9-4.5-2.7-8.1l-42.9-88.6c-2.8-5.5-7-8.3-12.7-8.3
			c-2.7,0-5.3,0.8-7.5,2.2c-2.3,1.4-4.2,3.4-5.3,5.9l-42.9,88.8c-1.8,3.6-2.7,6.3-2.7,8.1c0,3.8,3.1,7.2,9.2,10.2
			c3.6,1.8,6.4,2.7,8.5,2.7c1.8,0.1,3.6-0.5,5.1-1.5c1.1-0.8,2.1-1.8,2.9-2.9c0.6-1,1.4-2.5,2.5-4.6l8.3-17.1"/>
		<path class="st3" d="M574,63.4c16.2,15.6,27.7,27.3,34.5,35.1c3.5,3.9,5.2,7.2,5.2,9.9s-2.1,5.9-6.4,9.5
			c-4.2,3.7-7.7,5.5-10.4,5.5s-5.9-2.2-9.8-6.7l-34.9-39.9v31c0,1.9,0,3.7-0.2,5.6c-0.3,1.5-0.8,2.9-1.5,4.1
			c-1.5,2.9-5.6,4.3-12.4,4.3c-7.4,0-11.7-2-13-6c-0.8-2.6-1.1-5.4-1-8.1V19.5c0-1.8,0-3.7,0.2-5.5c0.2-1.5,0.8-2.9,1.5-4.2
			c1.5-2.9,5.6-4.3,12.4-4.3c7.4,0,11.8,2,13.2,5.9c0.6,2.7,0.9,5.5,0.8,8.3V50c14.4-16.2,22.4-27.7,31.3-38.1
			c3.7-4.3,6.9-6.5,9.7-6.5s6.3,1.8,10.5,5.5s6.3,6.8,6.3,9.5s-1.6,5.9-4.8,9.6c-6.2,7.1-12,15.1-25,27.5L574,63.4z"/>
		<path class="st3" d="M650.9,98.4h43.2c3.5,0,6,0.4,7.6,1.2c1.5,0.7,2.7,2.1,3.2,3.7c0.6,2.2,0.9,4.5,0.8,6.8
			c0.1,2.3-0.2,4.6-0.8,6.8c-0.4,1.5-1.3,2.8-2.7,3.5c-2.6,1.2-5.4,1.7-8.3,1.6h-57.2c-7.4,0-11.7-2-13-6c-0.8-2.6-1.1-5.4-1-8.1
			V19.5c0-1.8,0-3.6,0.2-5.5c0.2-1.5,0.8-2.9,1.5-4.2c1.5-2.9,5.6-4.3,12.4-4.3c7.4,0,11.8,2,13.2,5.9c0.6,2.7,0.9,5.5,0.8,8.3
			L650.9,98.4z"/>
		<line class="st4" x1="764.2" y1="90.2" x2="767.4" y2="83.5"/>
		<path class="st3" d="M762.6,73.6l10.5-21.8l10.6,21.8H780c-4.6,0-8.9,2.6-10.9,6.8l0,0c-2.8,5.7-0.5,12.6,5.3,15.4
			c1.4,0.7,2.9,1.1,4.4,1.2l2,0.1h14.4l8.3,17.2c1.1,2.1,1.9,3.7,2.5,4.8c0.7,1.2,1.7,2.2,2.9,3c1.5,1,3.3,1.5,5.1,1.4
			c2.1,0,4.9-0.9,8.5-2.7c6.1-3.1,9.2-6.5,9.2-10.3c0-1.8-0.9-4.5-2.7-8.1l-43-88.7c-2.8-5.5-7-8.3-12.7-8.3c-2.7,0-5.3,0.8-7.5,2.2
			c-2.3,1.4-4.2,3.4-5.3,5.9l-42.9,88.8c-1.8,3.6-2.7,6.3-2.7,8.1c0,3.8,3.1,7.2,9.2,10.2c3.6,1.8,6.4,2.7,8.5,2.7
			c1.8,0.1,3.6-0.5,5.1-1.5c1.1-0.8,2.1-1.8,2.9-2.9c0.6-1,1.4-2.5,2.5-4.6l8.3-17.2"/>
		<path class="st3" d="M923.2,59.5c6.1,6.9,9.4,15.8,9.4,24.9c-0.2,10.6-3.8,19.5-10.9,26.6c-6.7,7-16,10.9-25.7,10.7h-41.8
			c-7.4,0-11.7-2-13-6c-0.7-2.7-1.1-5.5-1-8.3V19.3c0-1.9,0-3.7,0.2-5.6c0.2-1.5,0.7-2.8,1.5-4.1c1.5-2.9,5.6-4.3,12.4-4.3h40
			c9.2-0.2,18.1,3.5,24.5,10.2c6.7,6.5,10.5,15.4,10.3,24.8C929.2,47.1,927.1,53.8,923.2,59.5z M904.4,82.8c0.1-2-0.2-4.1-0.9-6
			c-0.5-1.4-1.6-2.6-2.9-3.2c-2.9-1-5.9-1.4-8.9-1.3c-3.8,0-6.7-0.7-8.6-2.2s-2.9-4.5-2.9-9.1s1-7.6,2.9-9.1c2-1.5,5.2-2.2,9.8-2.2
			c4.2,0,6.8-1.1,7.6-3.3c0.4-1.9,0.5-3.8,0.5-5.7c0-2.7-0.9-4.5-2.6-5.6s-4.4-1.6-7.9-1.6h-22.2v60.2h26
			C901.1,93.6,904.4,90,904.4,82.8z"/>
		<path class="st5" d="M178.1,64.1"/>
		<path class="st6" d="M185.8,109.9c-10.3,9.3-22.5,13.9-36.8,13.9c-16.1,0-29.8-5.8-41.1-17.5c-11-11-17.1-26-16.9-41.6
			c-0.1-12.2,3.3-24.2,9.8-34.5c2.2-3.4,4.7-6.6,7.6-9.5c5.3-5.2,11.5-9.3,18.3-12.2c6.8-2.9,14-4.5,21.3-4.5
			c15.7,0,29.3,5.7,40.8,17s17.3,25.4,17.4,42.2c0.2,10.5-3.7,25.1-10.4,35.3 M124.4,45.5c-3.5,5.1-5.3,11.3-5.3,18.5
			c0,9.4,3,17.1,9.1,22.9c6.1,5.9,12.9,8.8,20.4,8.8s14.3-2.9,20.3-8.6s9.1-13.4,9.1-23s-3-17.4-9.1-23.2s-12.9-8.7-20.4-8.7
			c-4.3,0-9.2,0.8-14.9,4.3"/>
		<path class="st6" d="M244.6,61.7V47.5c0-7.7,6.2-13.9,13.9-13.9l0,0h6.1c3.5,0.1,6.8,1.3,9.5,3.6c3.1,2.4,4.6,5.9,4.6,10.6
			s-1.5,8.1-4.6,10.5c-2.6,2.2-5.8,3.4-9.2,3.5h-1c-7.7,0-11.8,6.2-11.8,13.9V76c0,7.7,4.1,13.9,11.8,13.9h0.7l4.9-0.3
			c7.2,17.1,11.3,26.7,12.4,28.8c0.8,1.2,1.8,2.3,2.9,3.1c1.5,1.1,3.3,1.6,5.1,1.5c2.8-0.2,5.6-1,8.2-2.2c6.6-2.8,9.9-6.1,9.9-10.2
			c0-1.7-0.8-4.4-2.4-8.3c-3-6.7-5.4-12.3-7.5-17c-1.9-4.6-1.2-9.9,1.7-13.9c4.6-6.7,6.9-14.5,6.9-23.6c0.1-6.5-1.3-12.9-4.2-18.8
			c-2.4-5.2-6-9.8-10.5-13.3c-8.8-6.8-17.8-10.2-27.1-10.2h-34.3c-6.8,0-10.9,1.4-12.4,4.3c-0.8,1.3-1.3,2.7-1.5,4.2
			c-0.2,1.8-0.3,3.7-0.2,5.5v88.1c-0.1,2.8,0.2,5.6,1,8.3c1.3,3.9,5.6,5.9,13,5.9c6.8,0,10.9-1.4,12.4-4.3c0.7-1.3,1.3-2.7,1.5-4.2
			c0.2-1.8,0.3-3.7,0.2-5.5v-18"/>
		<path class="st6" d="M378.9,56.4v51.8c0,1.8,0,3.6-0.2,5.4c-0.2,1.4-0.7,2.8-1.4,4c-0.9,1.6-2.4,2.8-4.2,3.3
			c-2.6,0.7-5.3,1.1-7.9,1c-2.7,0.1-5.3-0.3-7.9-1c-1.8-0.5-3.3-1.7-4.1-3.3c-0.7-1.3-1.2-2.7-1.4-4.1 M351.4,95V28.4h-30.5
			c-3.4,0-5.9-0.4-7.5-1.2c-1.5-0.7-2.7-2.1-3.2-3.7c-0.6-2.2-0.9-4.4-0.8-6.7c-0.1-2.2,0.2-4.4,0.8-6.6c0.4-1.5,1.4-2.7,2.7-3.4
			c2.6-1.1,5.3-1.6,8.1-1.4h88.3c3.4,0,5.9,0.4,7.5,1.2c1.5,0.7,2.7,2.1,3.1,3.7c0.6,2.2,0.9,4.4,0.8,6.7c0.1,2.2-0.2,4.4-0.8,6.6
			c-0.4,1.5-1.4,2.7-2.7,3.4c-2.6,1.1-5.3,1.6-8.1,1.4h-30.3v8.1"/>
		<path class="st6" d="M446.4,73.6l10.5-21.8l10.6,21.8h-3.8c-4.6,0-8.9,2.6-10.9,6.8l0,0c-2.8,5.7-0.5,12.6,5.3,15.4
			c1.4,0.7,2.9,1.1,4.4,1.2l2,0.1H479l8.3,17.2c1.1,2.1,1.9,3.7,2.5,4.8c0.7,1.2,1.7,2.2,2.9,3c1.5,1,3.3,1.5,5.1,1.4
			c2.1,0,4.9-0.9,8.5-2.7c6.1-3.1,9.2-6.5,9.2-10.3c0-1.8-0.9-4.5-2.7-8.1l-42.9-88.6c-2.8-5.5-7-8.3-12.7-8.3
			c-2.7,0-5.3,0.8-7.5,2.2c-2.3,1.4-4.2,3.4-5.3,5.9l-42.9,88.8c-1.8,3.6-2.7,6.3-2.7,8.1c0,3.8,3.1,7.2,9.2,10.2
			c3.6,1.8,6.4,2.7,8.5,2.7c1.8,0.1,3.6-0.5,5.1-1.5c1.1-0.8,2.1-1.8,2.9-2.9c0.6-1,1.4-2.5,2.5-4.6l9.8-20.3"/>
		<path class="st6" d="M524.1,19.5c0-1.8,0-3.7,0.2-5.5c0.2-1.5,0.8-2.9,1.5-4.2c1.5-2.9,5.6-4.3,12.4-4.3c7.4,0,11.8,2,13.2,5.9
			c0.6,2.7,0.9,5.5,0.8,8.3V50c14.4-16.2,22.4-27.7,31.3-38.1c3.7-4.3,6.9-6.5,9.7-6.5s6.3,1.8,10.5,5.5s6.3,6.8,6.3,9.5
			s-1.6,5.9-4.8,9.6c-6.2,7.1-12,15.1-25,27.5l-6.3,6c16.2,15.6,27.7,27.3,34.5,35.1c3.5,3.9,5.2,7.2,5.2,9.9c0,2.7-2.1,5.9-6.3,9.6
			s-7.7,5.5-10.4,5.5s-5.9-2.2-9.8-6.7l-16.7-19 M560.6,86.6l-8.4-9.6v31c0,1.9,0,3.7-0.2,5.6c-0.3,1.5-0.8,2.9-1.5,4.1
			c-1.5,2.9-5.6,4.3-12.4,4.3c-7.4,0-11.7-2-13-6c-0.8-2.6-1.1-5.4-1-8.1v-68"/>
		<path class="st6" d="M622.8,68.5v-49c0-1.8,0-3.6,0.2-5.5c0.2-1.5,0.8-2.9,1.5-4.2c1.5-2.9,5.6-4.3,12.4-4.3
			c7.4,0,11.8,2,13.2,5.9c0.6,2.7,0.9,5.5,0.8,8.3v78.8h43.2c3.5,0,6,0.4,7.6,1.2c1.5,0.7,2.7,2.1,3.2,3.7c0.6,2.2,0.9,4.5,0.8,6.8
			c0.1,2.3-0.2,4.6-0.8,6.8c-0.4,1.5-1.3,2.8-2.7,3.5c-2.6,1.2-5.4,1.7-8.3,1.6h-57.1c-7.4,0-11.7-2-13-6c-0.8-2.6-1.1-5.4-1-8.1V94
			"/>
		<path class="st6" d="M762.6,73.6l10.5-21.8l10.6,21.8H780c-4.6,0-8.9,2.6-10.9,6.8l0,0c-2.8,5.7-0.5,12.6,5.3,15.4
			c1.4,0.7,2.9,1.1,4.4,1.2l2,0.1h14.4l8.3,17.2c1.1,2.1,1.9,3.7,2.5,4.8c0.7,1.2,1.7,2.2,2.9,3c1.5,1,3.3,1.5,5.1,1.4
			c2.1,0,4.9-0.9,8.5-2.7c6.1-3.1,9.2-6.5,9.2-10.3c0-1.8-0.9-4.5-2.7-8.1l-43-88.7c-2.8-5.5-7-8.3-12.7-8.3c-2.7,0-5.3,0.8-7.5,2.2
			c-2.3,1.4-4.2,3.4-5.3,5.9l-42.9,88.8c-1.8,3.6-2.7,6.3-2.7,8.1c0,3.8,3.1,7.2,9.2,10.2c3.6,1.8,6.4,2.7,8.5,2.7
			c1.8,0.1,3.6-0.5,5.1-1.5c1.1-0.8,2.1-1.8,2.9-2.9c0.6-1,1.4-2.5,2.5-4.6l9.8-20.3"/>
		<path class="st6" d="M923.2,59.5c6.1,6.9,9.4,15.8,9.4,24.9c-0.2,10.6-3.8,19.5-10.9,26.6c-6.7,7-16,10.9-25.7,10.7h-41.8
			c-7.4,0-11.7-2-13-6c-0.7-2.7-1.1-5.5-1-8.3V19.3c0-1.9,0-3.7,0.2-5.6c0.2-1.5,0.7-2.8,1.5-4.1c1.5-2.9,5.6-4.3,12.4-4.3h40
			c9.2-0.2,18.1,3.5,24.5,10.2c6.7,6.5,10.5,15.4,10.3,24.8C929.2,47.1,927.1,53.8,923.2,59.5z M868.4,71.7v21.9h26
			c6.7,0,10-3.6,10-10.8c0.1-2-0.2-4.1-0.9-6c-0.5-1.4-1.6-2.6-2.9-3.2c-2.9-1-5.9-1.4-8.9-1.3c-3.8,0-6.7-0.7-8.6-2.2
			s-2.8-4.5-2.8-9.1s1-7.6,2.9-9.1c2-1.5,5.2-2.2,9.8-2.2c4.2,0,6.8-1.1,7.6-3.3c0.4-1.9,0.5-3.8,0.5-5.7c0-2.7-0.9-4.5-2.6-5.6
			s-4.4-1.6-7.9-1.6h-22.2v16.7"/>
		<path id="liquid1-2_1_" class="st8" d="M72.9,93.8H23.2L15.5,108c-2.7,4.9,0.7,11,6,11h53.2c5.3,0,8.7-6.1,6-11L72.9,93.8z"/>
		<g>
			<path id="bowl1_1_" class="st3" d="M90.3,111.8L60,58.3c-0.7-1.2-1.1-2.6-1.1-4V9.8h1c1.3,0,2.3-1,2.3-2.3V6.3
				c0-1.3-1-2.3-2.3-2.3l0,0H35.5c-1.3,0-2.3,1-2.3,2.3l0,0v1.2c0,1.3,1,2.3,2.3,2.3l0,0h1v44.5c0,1.4-0.4,2.8-1.1,4L5.1,111.8
				c-2.2,3.9-0.8,8.9,3.1,11.1c1.2,0.7,2.6,1.1,4,1.1h71.1c4.5,0,8.2-3.6,8.2-8.1C91.4,114.4,91,113.1,90.3,111.8z"/>
			<path id="bowl1-2_1_" class="st6" d="M70.5,77L60,58.3c-0.7-1.2-1.1-2.6-1.1-4V9.8h1c1.3,0,2.3-1,2.3-2.3V6.3
				c0-1.3-1-2.3-2.3-2.3l0,0H35.5c-1.3,0-2.3,1-2.3,2.3l0,0v1.2c0,1.3,1,2.3,2.3,2.3l0,0h1v9.1"/>
			<path id="bowl1-3_1_" class="st6" d="M36.5,33v21.3c0,1.4-0.4,2.8-1.1,4L5.1,111.8c-2.2,3.9-0.8,8.9,3.1,11.1
				c1.2,0.7,2.6,1.1,4,1.1h71.1c4.5,0,8.2-3.6,8.2-8.1c0-1.4-0.4-2.8-1.1-4L76.5,87.4"/>
			<path id="liquid1_1_" class="st7" d="M72.9,93.8H23.2L15.5,108c-2.7,4.9,0.7,11,6,11h53.2c5.3,0,8.7-6.1,6-11L72.9,93.8z"/>
			<circle id="bubble_b_1_" class="st9" cx="43.2" cy="103.3" r="3.5"/>
			<circle id="bubble_l_1_" class="st10" cx="37.6" cy="111" r="2.6"/>
		</g>
	</g>
</g>
</svg>
